<svg width="61" height="60" viewBox="0 0 61 60" fill="none" xmlns="http://www.w3.org/2000/svg">
<g clip-path="url(#clip0_225_4491)">
<path d="M54.7697 23.9628C54.3754 10.6825 43.4503 0 30.0761 0C16.7018 0 5.77676 10.6825 5.38229 23.9628L3.60547 25.7396V37.7898L5.37017 39.5545V47.7647C5.37017 52.5652 9.27559 56.4706 14.0761 56.4706H16.2619C16.9904 58.5246 18.9519 60 21.2525 60H24.7819C27.0841 60 29.0466 58.5225 29.7739 56.4664C29.8748 56.4681 29.9758 56.4706 30.0761 56.4706C38.5982 56.4706 45.7288 50.3981 47.3683 42.3529H51.9835L56.5466 37.7898V25.7396L54.7697 23.9628ZM30.0761 3.52941C40.5503 3.52941 49.2715 11.174 50.9568 21.1765H47.3683C45.7288 13.1313 38.5982 7.05882 30.0761 7.05882C21.5539 7.05882 14.4234 13.1313 12.7838 21.1765H9.19535C10.8806 11.174 19.6018 3.52941 30.0761 3.52941ZM43.747 21.1765C38.0424 21.1594 34.013 21.5068 30.6909 16.6506L29.0777 14.2926L27.6914 16.7907C25.6714 20.4306 22.951 21.1765 19.4878 21.1765H16.4051C17.9763 15.0944 23.5098 10.5882 30.0761 10.5882C36.6423 10.5882 42.1758 15.0944 43.747 21.1765ZM12.429 38.8235H9.63053L7.13488 36.3279V27.2015L9.63053 24.7059H12.429V38.8235ZM8.89959 47.7647V42.3529H12.7804C13.4448 45.6441 15.0343 48.6652 17.3891 51.0916C16.8955 51.6191 16.5083 52.2467 16.2619 52.9412H14.0761C11.2217 52.9412 8.89959 50.6191 8.89959 47.7647ZM24.7819 56.4706H21.2525C20.2794 56.4706 19.4878 55.6791 19.4878 54.7059C19.4878 53.7328 20.2794 52.9412 21.2525 52.9412H24.7819C25.755 52.9412 26.5466 53.7328 26.5466 54.7059C26.5466 55.6791 25.755 56.4706 24.7819 56.4706ZM44.1937 38.8235C44.1937 46.608 37.8605 52.9412 30.0761 52.9412C29.9749 52.9412 29.8729 52.9392 29.771 52.9368C29.0414 50.8851 27.0809 49.4118 24.7819 49.4118C21.1584 49.4198 21.2162 49.3936 20.7645 49.4352C17.7008 46.7498 15.9584 42.9248 15.9584 38.8235V24.7059H19.4878C22.611 24.7059 26.4145 24.1909 29.3588 20.6076C33.2435 24.6786 37.9908 24.7059 42.2523 24.7059H44.1937V38.8235ZM53.0172 36.3279L50.5216 38.8235H47.7231V24.7059H50.5216L53.0172 27.2015V36.3279Z" fill="#242424"/>
</g>
<defs>
<clipPath id="clip0_225_4491">
<rect width="60" height="60" fill="white" transform="translate(0.0742188)"/>
</clipPath>
</defs>
</svg>
