<svg width="48" height="56" viewBox="0 0 48 56" fill="none" xmlns="http://www.w3.org/2000/svg">
<path d="M15.2854 38.4283C20.611 38.4283 24.9283 34.111 24.9283 28.7854C24.9283 23.4598 20.611 19.1426 15.2854 19.1426C9.95983 19.1426 5.64258 23.4598 5.64258 28.7854C5.64258 34.111 9.95983 38.4283 15.2854 38.4283Z" stroke="url(#paint0_linear_88_771)" stroke-width="3.57143"/>
<path d="M0.00261579 31.0713C0.000871931 31.1901 0 31.3091 0 31.4284C0 44.6438 10.7132 55.357 23.9286 55.357C37.1439 55.357 47.8571 44.6438 47.8571 31.4284C47.8571 31.3091 47.8563 31.1901 47.8545 31.0713H0.00261579Z" fill="url(#paint1_linear_88_771)"/>
<path d="M35.6431 24.8571C38.0101 24.8571 39.9288 22.9383 39.9288 20.5714C39.9288 18.2044 38.0101 16.2856 35.6431 16.2856C33.2762 16.2856 31.3574 18.2044 31.3574 20.5714C31.3574 22.9383 33.2762 24.8571 35.6431 24.8571Z" stroke="#EAA427" stroke-width="2.14286"/>
<path d="M27.7857 10.5714C30.1526 10.5714 32.0714 8.65264 32.0714 6.28571C32.0714 3.91878 30.1526 2 27.7857 2C25.4188 2 23.5 3.91878 23.5 6.28571C23.5 8.65264 25.4188 10.5714 27.7857 10.5714Z" stroke="#EA7727" stroke-width="2.14286"/>
<defs>
<linearGradient id="paint0_linear_88_771" x1="7.42835" y1="20.5711" x2="22.4283" y2="38.0711" gradientUnits="userSpaceOnUse">
<stop stop-color="#EA6D27"/>
<stop offset="1" stop-color="#EAA827"/>
</linearGradient>
<linearGradient id="paint1_linear_88_771" x1="6.42857" y1="31.0713" x2="35" y2="46.7855" gradientUnits="userSpaceOnUse">
<stop stop-color="#FF9400"/>
<stop offset="1" stop-color="#EA6D27"/>
</linearGradient>
</defs>
</svg>
