<svg width="61" height="60" viewBox="0 0 61 60" fill="none" xmlns="http://www.w3.org/2000/svg">
<path d="M57.5282 21.2612C56.7365 18.8097 57.074 15.1296 55.0162 12.2882C52.9422 9.42438 49.335 8.61039 47.2982 7.1207C45.2828 5.64672 43.4078 2.43918 40.0177 1.33293C36.7232 0.257852 33.3543 1.71672 30.7422 1.71672C28.1304 1.71672 24.7618 0.2575 21.4667 1.33281C18.0771 2.43883 16.2006 5.64707 14.1865 7.12035C12.1519 8.60828 8.54207 9.42449 6.46844 12.2879C4.41238 15.127 4.74648 18.8154 3.95617 21.2611C3.20406 23.5888 0.742188 26.3825 0.742188 30.0003C0.742188 33.6203 3.20125 36.4032 3.95617 38.7393C4.74789 41.1909 4.41039 44.8709 6.4682 47.7123C8.54207 50.5763 12.1491 51.3902 14.1862 52.88C16.2012 54.3537 18.0766 57.5615 21.4667 58.6676C24.7589 59.742 28.1331 58.2838 30.7422 58.2838C33.3476 58.2838 36.7296 59.7405 40.0177 58.6677C43.4073 57.5617 45.2827 54.3542 47.2979 52.8802C49.3325 51.3923 52.9423 50.5761 55.0159 47.7127C57.0721 44.8735 56.7378 41.1854 57.5282 38.7394C58.2803 36.4116 60.7422 33.618 60.7422 30.0003C60.7422 26.3805 58.2837 23.5984 57.5282 21.2612ZM53.0679 37.298C52.1451 40.1545 52.3868 43.3512 51.2196 44.963C50.0368 46.5962 46.9291 47.3423 44.5311 49.0963C42.1593 50.8308 40.497 53.5804 38.5636 54.2112C36.7346 54.8082 33.7538 53.5961 30.7423 53.5961C27.7088 53.5961 24.7587 54.8107 22.9209 54.2112C20.9877 53.5804 19.3278 50.8327 16.9534 49.0962C14.5696 47.3528 11.4442 46.5914 10.2647 44.9628C9.10129 43.3564 9.33391 40.1375 8.41668 37.2981C7.51762 34.5162 5.42969 32.1074 5.42969 30.0003C5.42969 27.891 7.51574 25.4905 8.41645 22.7025C9.3393 19.8462 9.09754 16.6492 10.2647 15.0375C11.4469 13.4054 14.557 12.6569 16.9534 10.9042C19.3327 9.1641 20.9846 6.42109 22.9206 5.78934C24.7482 5.19309 27.7387 6.40445 30.7421 6.40445C33.7811 6.40445 36.7238 5.18898 38.5635 5.78934C40.4964 6.42004 42.1578 9.16879 44.5311 10.9043C46.9145 12.6477 50.0402 13.4091 51.2196 15.0377C52.3833 16.6444 52.1494 19.86 53.0677 22.7023V22.7024C53.9668 25.4843 56.0547 27.8931 56.0547 30.0003C56.0547 32.1095 53.9686 34.51 53.0679 37.298ZM41.5402 22.4774C42.4555 23.3928 42.4555 24.8767 41.5402 25.792L29.809 37.5231C28.8937 38.4385 27.4096 38.4384 26.4944 37.5231L19.9443 30.973C19.0289 30.0577 19.0288 28.5737 19.9442 27.6585C20.8595 26.7433 22.3437 26.7432 23.2587 27.6585L28.1516 32.5513L38.2254 22.4775C39.1408 21.5622 40.6248 21.5622 41.5402 22.4774Z" fill="#242424"/>
</svg>
