<svg width="61" height="60" viewBox="0 0 61 60" fill="none" xmlns="http://www.w3.org/2000/svg">
<g clip-path="url(#clip0_225_4485)">
<path d="M55.7542 31.1019V3.77964C55.7542 2.80489 54.9639 2.01465 53.9892 2.01465H6.70136C5.72661 2.01465 4.93637 2.80489 4.93637 3.77964V33.28C4.08494 33.404 3.25257 33.7346 2.51622 34.2812C0.194902 35.9273 -0.354128 39.6109 1.5903 41.8827L9.54017 51.5204C14.4612 57.2798 19.6887 57.9854 27.4601 57.9854C34.1291 57.9854 37.1106 58.0148 42.9227 56.6905L48.5822 55.3369C49.4999 56.6184 50.9567 57.4485 52.5945 57.4485H55.3825C58.1526 57.4485 60.4062 55.0744 60.4062 52.1561V36.3784C60.4063 33.592 58.3512 31.3031 55.7542 31.1019ZM47.8209 34.7326L45.4692 33.5382C41.6026 31.5865 37.1321 31.5142 33.2044 33.3403C32.1329 33.7618 29.7957 35.1759 28.5833 35.1286H20.423C17.7162 35.1286 15.514 37.3307 15.514 40.0376V41.3247C15.4988 41.3087 15.4829 41.2936 15.4679 41.2773L9.64054 34.9519C9.28789 34.5692 8.89171 34.2489 8.46647 33.9919V16.481H22.9103V22.951C22.9103 23.9257 23.7006 24.7159 24.6753 24.7159H35.8125C36.7873 24.7159 37.5775 23.9257 37.5775 22.951V16.481H52.2243V31.1018C50.1621 31.2611 48.4425 32.7364 47.8209 34.7326ZM26.4402 16.481H34.0474V21.186H26.4402V16.481ZM52.2242 12.951H37.5775V5.54463H52.2243V12.951H52.2242ZM34.0475 5.54463V12.9511H26.4403V5.54463H34.0475ZM22.9102 5.54463V12.9511H8.46635V5.54463H22.9102ZM42.1035 53.2568C36.7344 54.4865 33.5008 54.4367 27.5234 54.4367C20.2281 54.4367 16.7032 54.3188 12.2634 49.274L4.31356 39.6363C2.93075 37.8357 5.43539 35.7101 7.04436 37.3435L12.8718 43.669C14.4119 45.2941 16.35 46.1885 18.7387 46.2411H34.8952C35.8699 46.2411 36.6602 45.4508 36.6602 44.4761C36.6602 43.5013 35.8699 42.7111 34.8952 42.7111H19.0438V40.0373C19.0438 39.277 19.6624 38.6583 20.4229 38.6583H28.5832C30.4216 38.79 33.0751 37.2549 34.6926 36.541C37.6342 35.1733 40.9825 35.2274 43.8746 36.6872L47.571 38.5646V51.9489L42.1035 53.2568ZM56.8764 52.156C56.8764 53.1278 56.2063 53.9184 55.3826 53.9184H52.5946C51.771 53.9184 51.101 53.1278 51.101 52.156V36.3784C51.101 35.4066 51.7711 34.6159 52.5946 34.6159H55.3826C56.2063 34.6159 56.8764 35.4065 56.8764 36.3784V52.156Z" fill="#242424"/>
</g>
<defs>
<clipPath id="clip0_225_4485">
<rect width="60" height="60" fill="white" transform="translate(0.40625)"/>
</clipPath>
</defs>
</svg>
