<svg width="25" height="25" viewBox="0 0 25 25" fill="none" xmlns="http://www.w3.org/2000/svg">
<path d="M12.3528 2.32568C15.6053 2.32568 15.9905 2.33805 17.275 2.39666C18.4626 2.45086 19.1076 2.6493 19.5369 2.81607C20.1054 3.03704 20.5112 3.30104 20.9374 3.72727C21.3637 4.1535 21.6277 4.55932 21.8486 5.12785C22.0154 5.55712 22.2138 6.20209 22.268 7.38968C22.3266 8.67416 22.339 9.05939 22.339 12.3119C22.339 15.5643 22.3266 15.9496 22.268 17.234C22.2138 18.4216 22.0154 19.0666 21.8486 19.4959C21.6277 20.0644 21.3637 20.4702 20.9374 20.8965C20.5112 21.3227 20.1054 21.5867 19.5369 21.8076C19.1076 21.9744 18.4626 22.1729 17.275 22.2271C15.9907 22.2857 15.6055 22.2981 12.3528 22.2981C9.10016 22.2981 8.71494 22.2857 7.4307 22.2271C6.24306 22.1729 5.59809 21.9744 5.16886 21.8076C4.60029 21.5867 4.19446 21.3227 3.76824 20.8965C3.34201 20.4702 3.078 20.0644 2.85708 19.4959C2.69027 19.0666 2.49183 18.4216 2.43762 17.2341C2.37902 15.9496 2.36664 15.5643 2.36664 12.3119C2.36664 9.05939 2.37902 8.67416 2.43762 7.38973C2.49183 6.2021 2.69027 5.55712 2.85708 5.12785C3.078 4.55932 3.34201 4.1535 3.76824 3.72727C4.19446 3.30104 4.60029 3.03704 5.16886 2.81607C5.59809 2.6493 6.24306 2.45086 7.43065 2.39666C8.71513 2.33805 9.10036 2.32568 12.3528 2.32568ZM12.3528 0.130859C9.04465 0.130859 8.62988 0.144882 7.33065 0.204162C6.03408 0.263345 5.14865 0.46923 4.3738 0.770369C3.5728 1.08166 2.89349 1.49817 2.21631 2.17535C1.53914 2.85252 1.12263 3.53183 0.811337 4.33284C0.510197 5.10768 0.304312 5.99311 0.245129 7.28969C0.185849 8.58887 0.171875 9.00369 0.171875 12.3119C0.171875 15.62 0.185849 16.0349 0.245129 17.334C0.304312 18.6306 0.510197 19.516 0.811337 20.2909C1.12263 21.0919 1.53914 21.7712 2.21631 22.4484C2.89349 23.1256 3.5728 23.5421 4.3738 23.8534C5.14865 24.1545 6.03408 24.3604 7.33065 24.4196C8.62988 24.4789 9.04465 24.4928 12.3528 24.4928C15.661 24.4928 16.0758 24.4789 17.375 24.4196C18.6716 24.3604 19.557 24.1545 20.3319 23.8534C21.1329 23.5421 21.8122 23.1256 22.4894 22.4484C23.1665 21.7712 23.583 21.0919 23.8943 20.2909C24.1955 19.516 24.4014 18.6306 24.4605 17.334C24.5198 16.0349 24.5338 15.62 24.5338 12.3119C24.5338 9.00369 24.5198 8.58887 24.4605 7.28969C24.4014 5.99311 24.1955 5.10768 23.8943 4.33284C23.583 3.53183 23.1665 2.85252 22.4894 2.17535C21.8122 1.49817 21.1329 1.08166 20.3319 0.770369C19.557 0.46923 18.6716 0.263345 17.375 0.204162C16.0758 0.144882 15.661 0.130859 12.3528 0.130859ZM12.3528 6.05675C8.89824 6.05675 6.09771 8.85728 6.09771 12.3119C6.09771 15.7665 8.89824 18.567 12.3528 18.567C15.8074 18.567 18.608 15.7665 18.608 12.3119C18.608 8.85728 15.8074 6.05675 12.3528 6.05675ZM12.3528 16.3722C10.1104 16.3722 8.29248 14.5543 8.29248 12.3119C8.29248 10.0694 10.1104 8.25152 12.3528 8.25152C14.5953 8.25152 16.4132 10.0694 16.4132 12.3119C16.4132 14.5543 14.5953 16.3722 12.3528 16.3722ZM20.3168 5.80962C20.3168 6.61691 19.6624 7.27136 18.8551 7.27136C18.0478 7.27136 17.3933 6.61691 17.3933 5.80962C17.3933 5.00232 18.0478 4.34792 18.8551 4.34792C19.6624 4.34792 20.3168 5.00232 20.3168 5.80962Z" fill="black"/>
</svg>
