<svg width="25" height="25" viewBox="0 0 25 25" fill="none" xmlns="http://www.w3.org/2000/svg">
<path d="M19.1777 14.2843L15.4297 12.4103C15.2822 12.3368 15.1178 12.3035 14.9533 12.3138C14.7888 12.3241 14.6299 12.3776 14.4927 12.4689L12.7721 13.6167C11.9823 13.1825 11.3323 12.5325 10.8981 11.7427L12.0459 10.0221C12.1372 9.8849 12.1907 9.726 12.201 9.56149C12.2113 9.39697 12.178 9.23266 12.1045 9.08512L10.2305 5.3371C10.1528 5.18023 10.0327 5.04826 9.8839 4.95614C9.73505 4.86402 9.56339 4.81543 9.38834 4.81589C8.14579 4.81589 6.95414 5.30949 6.07553 6.1881C5.19691 7.06672 4.70331 8.25837 4.70331 9.50092C4.70641 12.2336 5.79333 14.8534 7.72561 16.7857C9.65788 18.718 12.2777 19.8049 15.0104 19.808C15.6256 19.808 16.2348 19.6868 16.8033 19.4514C17.3717 19.2159 17.8881 18.8708 18.3232 18.4358C18.7582 18.0007 19.1033 17.4843 19.3388 16.9158C19.5742 16.3474 19.6954 15.7382 19.6954 15.123C19.6955 14.9489 19.6472 14.7782 19.5557 14.6301C19.4643 14.482 19.3334 14.3622 19.1777 14.2843ZM15.0104 17.934C12.7746 17.9315 10.631 17.0422 9.05005 15.4612C7.46908 13.8803 6.57981 11.7367 6.57732 9.50092C6.57714 8.85101 6.80216 8.22112 7.21409 7.71843C7.62602 7.21574 8.19941 6.87132 8.83668 6.74378L10.1813 9.43767L9.03697 11.1407C8.95145 11.2689 8.89891 11.4163 8.884 11.5698C8.86908 11.7232 8.89226 11.878 8.95146 12.0203C9.62187 13.6137 10.8894 14.8812 12.4828 15.5516C12.6256 15.6135 12.7815 15.6388 12.9365 15.6253C13.0915 15.6118 13.2407 15.5599 13.3706 15.4743L15.0818 14.3335L17.7757 15.6781C17.6472 16.3161 17.3013 16.8898 16.7969 17.3012C16.2926 17.7126 15.6612 17.9362 15.0104 17.934ZM12.1994 0.13086C10.0963 0.130401 8.029 0.674426 6.1986 1.70998C4.3682 2.74554 2.83709 4.23735 1.75429 6.0402C0.67149 7.84306 0.0738969 9.89554 0.0196751 11.9979C-0.0345466 14.1002 0.456451 16.1808 1.44488 18.037L0.115498 22.0252C0.00538197 22.3554 -0.0105985 22.7097 0.069348 23.0485C0.149295 23.3872 0.322009 23.697 0.568132 23.9432C0.814256 24.1893 1.12406 24.362 1.46283 24.4419C1.80159 24.5219 2.15593 24.5059 2.48612 24.3958L6.47425 23.0664C8.10789 23.9353 9.918 24.4206 11.7672 24.4855C13.6164 24.5504 15.4561 24.1932 17.1466 23.4409C18.8371 22.6887 20.334 21.5612 21.5238 20.144C22.7135 18.7268 23.5647 17.0573 24.0128 15.262C24.4609 13.4668 24.4942 11.593 24.11 9.783C23.7259 7.97298 22.9344 6.27426 21.7957 4.81579C20.6571 3.35732 19.2011 2.17742 17.5383 1.36566C15.8755 0.553904 14.0497 0.131619 12.1994 0.13086ZM12.1994 22.619C10.3874 22.6202 8.60723 22.1431 7.0388 21.2357C6.92396 21.1692 6.79629 21.1277 6.66423 21.1142C6.53218 21.1007 6.39875 21.1153 6.2728 21.1573L1.8923 22.619L3.35285 18.2385C3.39496 18.1126 3.40984 17.9792 3.39651 17.8472C3.38318 17.7151 3.34195 17.5874 3.27555 17.4725C2.1394 15.5082 1.68324 13.2239 1.97783 10.9738C2.27243 8.72384 3.30131 6.63393 4.90487 5.02835C6.50843 3.42276 8.59703 2.39123 10.8467 2.0938C13.0963 1.79636 15.3812 2.24963 17.347 3.38331C19.3127 4.51698 20.8494 6.26767 21.7186 8.36381C22.5878 10.4599 22.741 12.7843 22.1544 14.9764C21.5678 17.1685 20.2741 19.1057 18.4742 20.4876C16.6742 21.8694 14.4686 22.6186 12.1994 22.619Z" fill="black"/>
</svg>
