<svg width="71" height="70" viewBox="0 0 71 70" fill="none" xmlns="http://www.w3.org/2000/svg">
<circle cx="35.0742" cy="35" r="35" fill="url(#paint0_linear_225_4459)"/>
<path d="M52.6847 23.9909C53.3761 25.1883 53.2834 26.6141 52.442 27.7115L33.9682 51.8187C33.2063 52.8128 31.9518 53.3196 30.6691 53.0734C29.4129 52.8318 28.4169 51.9161 28.0713 50.6845L25.3378 40.9559L25.0531 39.944L24.3191 39.1915L17.2606 31.96C16.3669 31.0449 16.0719 29.7245 16.4908 28.5159C16.9053 27.3211 17.945 26.4541 19.2269 26.2861L49.3412 22.3409C50.7123 22.1609 51.9934 22.7935 52.6847 23.9909Z" fill="white"/>
<path d="M25.3378 40.9557L28.0712 50.6844C28.4169 51.9159 29.4128 52.8315 30.669 53.0732C31.9518 53.3195 33.2063 52.8126 33.9681 51.8185L52.4419 27.7113C53.2834 26.6139 53.376 25.1881 52.6847 23.9907L25.0531 39.9438L25.3378 40.9557Z" fill="white"/>
<path d="M36.2986 33.452C36.5797 33.939 36.4133 34.5621 35.9257 34.8436L25.339 40.9558L25.0543 39.9439L24.3203 39.1914L34.907 33.0792C35.3946 32.7977 36.0174 32.9651 36.2986 33.452Z" fill="url(#paint1_linear_225_4459)"/>
<path d="M25.3375 40.9554L35.9242 34.8432C36.4117 34.5617 36.5782 33.9387 36.297 33.4517L25.0528 39.9435L25.3375 40.9554Z" fill="url(#paint2_linear_225_4459)"/>
<defs>
<linearGradient id="paint0_linear_225_4459" x1="49.721" y1="1.96393" x2="19.6382" y2="77.7643" gradientUnits="userSpaceOnUse">
<stop stop-color="#747DEF"/>
<stop offset="1" stop-color="#5E3BE1"/>
</linearGradient>
<linearGradient id="paint1_linear_225_4459" x1="32.4831" y1="34.5446" x2="33.6207" y2="36.8256" gradientUnits="userSpaceOnUse">
<stop stop-color="#747DEF"/>
<stop offset="1" stop-color="#5E3BE1"/>
</linearGradient>
<linearGradient id="paint2_linear_225_4459" x1="32.9766" y1="35.4017" x2="33.5807" y2="36.5259" gradientUnits="userSpaceOnUse">
<stop stop-color="#747DEF"/>
<stop offset="1" stop-color="#5E3BE1"/>
</linearGradient>
</defs>
</svg>
